<svg width="54" height="54" viewBox="0 0 54 54" fill="none" xmlns="http://www.w3.org/2000/svg">
<rect x="1" y="1" width="52" height="52" rx="26" stroke="#FF4949" stroke-width="2"/>
<path d="M19.2656 20.6016V32H17.0156V23.1953L14.3125 24.0547V22.2812L19.0234 20.6016H19.2656ZM30.6328 28.8828C30.6328 29.5964 30.4661 30.1979 30.1328 30.6875C29.7995 31.1719 29.3411 31.5391 28.7578 31.7891C28.1797 32.0339 27.5234 32.1562 26.7891 32.1562C26.0547 32.1562 25.3958 32.0339 24.8125 31.7891C24.2292 31.5391 23.7682 31.1719 23.4297 30.6875C23.0911 30.1979 22.9219 29.5964 22.9219 28.8828C22.9219 28.4036 23.0182 27.9714 23.2109 27.5859C23.4036 27.1953 23.6719 26.862 24.0156 26.5859C24.3646 26.3047 24.7734 26.0911 25.2422 25.9453C25.7109 25.7943 26.2214 25.7188 26.7734 25.7188C27.513 25.7188 28.1745 25.849 28.7578 26.1094C29.3411 26.3698 29.7995 26.737 30.1328 27.2109C30.4661 27.6849 30.6328 28.2422 30.6328 28.8828ZM28.3672 28.7344C28.3672 28.3854 28.2995 28.0859 28.1641 27.8359C28.0339 27.5807 27.849 27.3854 27.6094 27.25C27.3698 27.1146 27.0911 27.0469 26.7734 27.0469C26.4557 27.0469 26.1771 27.1146 25.9375 27.25C25.6979 27.3854 25.5104 27.5807 25.375 27.8359C25.2448 28.0859 25.1797 28.3854 25.1797 28.7344C25.1797 29.0781 25.2448 29.375 25.375 29.625C25.5104 29.875 25.6979 30.0677 25.9375 30.2031C26.1823 30.3333 26.4661 30.3984 26.7891 30.3984C27.112 30.3984 27.3906 30.3333 27.625 30.2031C27.8646 30.0677 28.0469 29.875 28.1719 29.625C28.3021 29.375 28.3672 29.0781 28.3672 28.7344ZM30.3906 23.6406C30.3906 24.2188 30.237 24.7318 29.9297 25.1797C29.6224 25.6224 29.1953 25.9688 28.6484 26.2188C28.1068 26.4688 27.487 26.5938 26.7891 26.5938C26.0859 26.5938 25.4609 26.4688 24.9141 26.2188C24.3672 25.9688 23.9401 25.6224 23.6328 25.1797C23.3255 24.7318 23.1719 24.2188 23.1719 23.6406C23.1719 22.9531 23.3255 22.375 23.6328 21.9062C23.9453 21.4323 24.3724 21.0729 24.9141 20.8281C25.4609 20.5833 26.0807 20.4609 26.7734 20.4609C27.4766 20.4609 28.099 20.5833 28.6406 20.8281C29.1875 21.0729 29.6146 21.4323 29.9219 21.9062C30.2344 22.375 30.3906 22.9531 30.3906 23.6406ZM28.1406 23.7422C28.1406 23.4349 28.0859 23.1693 27.9766 22.9453C27.8672 22.7161 27.7109 22.5391 27.5078 22.4141C27.3099 22.2891 27.0651 22.2266 26.7734 22.2266C26.4922 22.2266 26.25 22.2865 26.0469 22.4062C25.849 22.526 25.6953 22.7005 25.5859 22.9297C25.4818 23.1536 25.4297 23.4245 25.4297 23.7422C25.4297 24.0495 25.4818 24.3203 25.5859 24.5547C25.6953 24.7839 25.8516 24.9635 26.0547 25.0938C26.2578 25.224 26.5026 25.2891 26.7891 25.2891C27.0755 25.2891 27.3177 25.224 27.5156 25.0938C27.7188 24.9635 27.8724 24.7839 27.9766 24.5547C28.0859 24.3203 28.1406 24.0495 28.1406 23.7422ZM39.6094 25.6641V27.625H31.8125V25.6641H39.6094ZM36.7812 22.5781V30.8594H34.6484V22.5781H36.7812Z" fill="#FF4949"/>
</svg>
