<svg width="29" height="30" viewBox="0 0 29 30" fill="none" xmlns="http://www.w3.org/2000/svg">
<rect width="29" height="30" rx="14.5" fill="url(#paint0_linear_7315_22964)"/>
<path d="M22.1943 15.6962C22.3901 15.5015 22.5 15.2375 22.5 14.9622C22.5 14.687 22.3901 14.423 22.1943 14.2282L15.2261 7.30376C15.0301 7.10925 14.7644 7 14.4874 7C14.2104 7 13.9448 7.10925 13.7488 7.30376L6.78053 14.2282C6.5959 14.4251 6.49539 14.6856 6.50016 14.9547C6.50494 15.2237 6.61464 15.4805 6.80614 15.6708C6.99765 15.8611 7.25601 15.9701 7.5268 15.9748C7.79759 15.9796 8.05966 15.8797 8.2578 15.6962L14.4874 9.50748L20.717 15.6962C20.913 15.8907 21.1787 16 21.4557 16C21.7327 16 21.9983 15.8907 22.1943 15.6962Z" fill="white"/>
<path d="M22.1943 22.6962C22.3901 22.5015 22.5 22.2375 22.5 21.9622C22.5 21.687 22.3901 21.423 22.1943 21.2282L15.2261 14.3038C15.0301 14.1093 14.7644 14 14.4874 14C14.2104 14 13.9448 14.1093 13.7488 14.3038L6.78053 21.2282C6.5959 21.4251 6.49539 21.6856 6.50016 21.9547C6.50494 22.2237 6.61464 22.4805 6.80614 22.6708C6.99765 22.8611 7.25601 22.9701 7.5268 22.9748C7.79759 22.9796 8.05966 22.8797 8.2578 22.6962L14.4874 16.5075L20.717 22.6962C20.913 22.8907 21.1787 23 21.4557 23C21.7327 23 21.9983 22.8907 22.1943 22.6962Z" fill="white"/>
<defs>
<linearGradient id="paint0_linear_7315_22964" x1="14.5" y1="0" x2="14.5" y2="30" gradientUnits="userSpaceOnUse">
<stop stop-color="#00B25B"/>
<stop offset="1" stop-color="#020D0E"/>
</linearGradient>
</defs>
</svg>
